<svg width="199" height="49" viewBox="0 0 199 49" fill="none" xmlns="http://www.w3.org/2000/svg">
<path d="M16.1891 37H0.589131V32.872L4.76513 30.952V8.776L0.589131 6.856V2.728H16.1891V6.856L12.0131 8.776V30.952L16.1891 32.872V37ZM36.9094 37.48C33.0054 37.48 29.9814 36.408 27.8374 34.264C25.7254 32.088 24.6694 28.68 24.6694 24.04C24.6694 20.84 25.2134 18.232 26.3014 16.216C27.3894 14.2 28.8934 12.712 30.8134 11.752C32.7654 10.792 35.0054 10.312 37.5334 10.312C39.3254 10.312 40.8774 10.488 42.1894 10.84C43.5334 11.192 44.7014 11.608 45.6934 12.088L43.5814 17.608C42.4614 17.16 41.4054 16.792 40.4134 16.504C39.4534 16.216 38.4934 16.072 37.5334 16.072C33.8214 16.072 31.9654 18.712 31.9654 23.992C31.9654 26.616 32.4454 28.552 33.4054 29.8C34.3974 31.048 35.7734 31.672 37.5334 31.672C39.0374 31.672 40.3654 31.48 41.5174 31.096C42.6694 30.68 43.7894 30.12 44.8774 29.416V35.512C43.7894 36.216 42.6374 36.712 41.4214 37C40.2374 37.32 38.7334 37.48 36.9094 37.48ZM66.5096 10.312C70.1256 10.312 72.9896 11.352 75.1016 13.432C77.2136 15.48 78.2696 18.408 78.2696 22.216V25.672H61.3736C61.4376 27.688 62.0296 29.272 63.1496 30.424C64.3016 31.576 65.8856 32.152 67.9016 32.152C69.5976 32.152 71.1336 31.992 72.5096 31.672C73.8856 31.32 75.3096 30.792 76.7816 30.088V35.608C75.5016 36.248 74.1416 36.712 72.7016 37C71.2936 37.32 69.5816 37.48 67.5656 37.48C64.9416 37.48 62.6216 37 60.6056 36.04C58.5896 35.048 57.0056 33.56 55.8536 31.576C54.7016 29.592 54.1256 27.096 54.1256 24.088C54.1256 21.016 54.6376 18.472 55.6616 16.456C56.7176 14.408 58.1736 12.872 60.0296 11.848C61.8856 10.824 64.0456 10.312 66.5096 10.312ZM66.5576 15.4C65.1816 15.4 64.0296 15.848 63.1016 16.744C62.2056 17.64 61.6776 19.032 61.5176 20.92H71.5496C71.5176 19.32 71.1016 18.008 70.3016 16.984C69.5016 15.928 68.2536 15.4 66.5576 15.4ZM103.461 10.312C106.405 10.312 108.789 11.464 110.613 13.768C112.437 16.04 113.349 19.4 113.349 23.848C113.349 28.296 112.405 31.688 110.517 34.024C108.629 36.328 106.213 37.48 103.269 37.48C101.381 37.48 99.877 37.144 98.757 36.472C97.637 35.768 96.725 34.984 96.021 34.12H95.637C95.893 35.464 96.021 36.744 96.021 37.96V48.52H88.869V10.792H94.677L95.685 14.2H96.021C96.725 13.144 97.669 12.232 98.853 11.464C100.037 10.696 101.573 10.312 103.461 10.312ZM101.157 16.024C99.301 16.024 97.989 16.6 97.221 17.752C96.485 18.904 96.085 20.664 96.021 23.032V23.8C96.021 26.328 96.389 28.28 97.125 29.656C97.893 31 99.269 31.672 101.253 31.672C102.885 31.672 104.085 31 104.853 29.656C105.653 28.28 106.053 26.312 106.053 23.752C106.053 18.6 104.421 16.024 101.157 16.024ZM127.644 0.519998C128.7 0.519998 129.612 0.775998 130.38 1.288C131.148 1.768 131.532 2.68 131.532 4.024C131.532 5.336 131.148 6.248 130.38 6.76C129.612 7.272 128.7 7.528 127.644 7.528C126.556 7.528 125.628 7.272 124.86 6.76C124.124 6.248 123.756 5.336 123.756 4.024C123.756 2.68 124.124 1.768 124.86 1.288C125.628 0.775998 126.556 0.519998 127.644 0.519998ZM131.196 10.792V37H124.044V10.792H131.196ZM154.125 37.48C150.221 37.48 147.197 36.408 145.053 34.264C142.941 32.088 141.885 28.68 141.885 24.04C141.885 20.84 142.429 18.232 143.517 16.216C144.605 14.2 146.109 12.712 148.029 11.752C149.981 10.792 152.221 10.312 154.749 10.312C156.541 10.312 158.093 10.488 159.405 10.84C160.749 11.192 161.917 11.608 162.909 12.088L160.797 17.608C159.677 17.16 158.621 16.792 157.629 16.504C156.669 16.216 155.709 16.072 154.749 16.072C151.037 16.072 149.181 18.712 149.181 23.992C149.181 26.616 149.661 28.552 150.621 29.8C151.613 31.048 152.989 31.672 154.749 31.672C156.253 31.672 157.581 31.48 158.733 31.096C159.885 30.68 161.005 30.12 162.093 29.416V35.512C161.005 36.216 159.853 36.712 158.637 37C157.453 37.32 155.949 37.48 154.125 37.48ZM180.077 16.84C180.077 17.832 180.029 18.824 179.933 19.816C179.869 20.776 179.789 21.752 179.693 22.744H179.789C180.269 22.072 180.765 21.4 181.277 20.728C181.789 20.024 182.333 19.368 182.909 18.76L190.253 10.792H198.317L187.901 22.168L198.941 37H190.685L183.149 26.392L180.077 28.84V37H172.925V0.519998H180.077V16.84Z" fill="white"/>
</svg>
